HIERARCHY
ROOT Hips
{
	OFFSET -0.001795 -0.223333 0.028219
	CHANNELS 6 Xposition Yposition Zposition Zrotation Yrotation Xrotation 
	JOINT LeftUpLeg
	{
		OFFSET 0.069520 -0.091406 -0.006815
		CHANNELS 3 Zrotation Yrotation Xrotation
		JOINT LeftLeg
		{
			OFFSET 0.034277 -0.375199 -0.004496
			CHANNELS 3 Zrotation Yrotation Xrotation
			JOINT LeftFoot
			{
				OFFSET -0.013596 -0.397961 -0.043693
				CHANNELS 3 Zrotation Yrotation Xrotation
				JOINT LeftToe
				{
					OFFSET 0.026358 -0.055791 0.119288
					CHANNELS 3 Zrotation Yrotation Xrotation
					End Site
					{
						OFFSET 0.000000 0.000000 0.000000
					}
				}
			}
		}
	}
	JOINT RightUpLeg
	{
		OFFSET -0.067670 -0.090522 -0.004320
		CHANNELS 3 Zrotation Yrotation Xrotation
		JOINT RightLeg
		{
			OFFSET -0.038290 -0.382569 -0.008850
			CHANNELS 3 Zrotation Yrotation Xrotation
			JOINT RightFoot
			{
				OFFSET 0.015774 -0.398415 -0.042312
				CHANNELS 3 Zrotation Yrotation Xrotation
				JOINT RightToe
				{
					OFFSET -0.025372 -0.048144 0.123348
					CHANNELS 3 Zrotation Yrotation Xrotation
					End Site
					{
						OFFSET 0.000000 0.000000 0.000000
					}
				}
			}
		}
	}
	JOINT Spine
	{
		OFFSET -0.002533 0.108963 -0.026696
		CHANNELS 3 Zrotation Yrotation Xrotation
		JOINT Spine1
		{
			OFFSET 0.005487 0.135180 0.001092
			CHANNELS 3 Zrotation Yrotation Xrotation
			JOINT Spine2
			{
				OFFSET 0.001457 0.052922 0.025425
				CHANNELS 3 Zrotation Yrotation Xrotation
				JOINT Neck
				{
					OFFSET -0.002778 0.213870 -0.042857
					CHANNELS 3 Zrotation Yrotation Xrotation
					JOINT Head
					{
						OFFSET 0.005152 0.064970 0.051349
						CHANNELS 3 Zrotation Yrotation Xrotation
						End Site
						{
							OFFSET 0.000000 0.000000 0.000000
						}
					}
				}
				JOINT LeftShoulder
				{
					OFFSET 0.078845 0.121749 -0.034090
					CHANNELS 3 Zrotation Yrotation Xrotation
					JOINT LeftArm
					{
						OFFSET 0.090977 0.030469 -0.008868
						CHANNELS 3 Zrotation Yrotation Xrotation
						JOINT LeftForeArm
						{
							OFFSET 0.259612 -0.012772 -0.027456
							CHANNELS 3 Zrotation Yrotation Xrotation
							JOINT LeftHand
							{
								OFFSET 0.249234 0.008986 -0.001171
								CHANNELS 3 Zrotation Yrotation Xrotation
								End Site
								{
									OFFSET 0.000000 0.000000 0.000000
								}
							}
						}
					}
				}
				JOINT RightShoulder
				{
					OFFSET -0.081759 0.118833 -0.038615
					CHANNELS 3 Zrotation Yrotation Xrotation
					JOINT RightArm
					{
						OFFSET -0.096012 0.032551 -0.009143
						CHANNELS 3 Zrotation Yrotation Xrotation
						JOINT RightForeArm
						{
							OFFSET -0.253742 -0.013329 -0.021401
							CHANNELS 3 Zrotation Yrotation Xrotation
							JOINT RightHand
							{
								OFFSET -0.255298 0.007772 -0.005559
								CHANNELS 3 Zrotation Yrotation Xrotation
								End Site
								{
									OFFSET 0.000000 0.000000 0.000000
								}
							}
						}
					}
				}
			}
		}
	}
}
MOTION
Frames: 10
Frame Time: 0.050000
-0.013922 0.920225 0.044053 -2.320802 -4.502870 16.154388 10.960056 0.513989 -36.755962 -10.140341 3.677550 31.229580 9.314067 19.291970 9.171614 0.000000 0.000000 0.000000 -7.347992 2.241836 -35.163855 10.031223 -1.933245 25.403923 -7.133336 -18.932496 7.195080 0.000000 0.000000 0.000000 1.715533 -1.343587 26.861523 -6.168002 1.903903 -22.887590 -2.591009 9.552804 32.413571 16.978518 -5.782071 -32.446831 0.000000 0.000000 0.000000 0.338092 -2.391644 0.707705 -55.430861 -8.805850 -6.072509 -154.678385 -82.548521 157.155996 0.000000 0.000000 0.000000 13.749134 -11.865717 -5.745934 59.519910 -3.983575 -10.063589 84.000138 71.968563 76.110805 0.000000 0.000000 0.000000 
-0.012176 0.923699 0.047123 -2.566643 -4.589592 15.813550 11.008061 0.541579 -36.608756 -9.846871 3.575996 31.356166 9.135931 18.976479 9.563704 0.000000 0.000000 0.000000 -7.171925 2.265743 -34.740612 9.998428 -1.887457 24.705510 -7.109551 -18.914527 7.864962 0.000000 0.000000 0.000000 2.046850 -1.416080 26.263044 -6.184824 1.914344 -22.711721 -2.444374 9.408548 32.847810 16.304139 -5.403793 -32.814217 0.000000 0.000000 0.000000 -0.636083 -2.882736 0.819390 -57.549603 -10.396014 -5.528391 -165.649144 -81.537651 170.024601 0.000000 0.000000 0.000000 13.320437 -11.155543 -5.335926 62.929383 -3.065889 -10.078947 87.183910 73.820485 81.524654 0.000000 0.000000 0.000000 
-0.009113 0.931853 0.053464 -2.678938 -4.787456 15.632064 10.275410 0.289874 -35.066751 -8.729062 2.957163 29.308312 9.189956 19.025061 10.440318 0.000000 0.000000 0.000000 -6.267617 2.421274 -33.655229 8.729127 -1.439939 23.681739 -7.333122 -19.391413 8.563936 0.000000 0.000000 0.000000 2.398695 -1.445230 24.759141 -5.905809 1.839943 -22.961209 -2.487165 9.211434 32.826673 15.725884 -5.432607 -31.653794 0.000000 0.000000 0.000000 -1.710795 -2.105170 0.465445 -58.787930 -10.198613 -5.682519 -165.134719 -78.220058 169.261238 0.000000 0.000000 0.000000 14.513492 -11.229210 -5.539603 64.556250 -3.157941 -10.461318 93.921982 75.137812 89.821248 0.000000 0.000000 0.000000 
-0.005285 0.938231 0.062347 -2.770535 -4.655692 14.935437 9.492778 -0.007014 -32.932828 -7.877420 2.508657 28.021518 9.223537 19.074246 10.145948 0.000000 0.000000 0.000000 -5.673792 2.376412 -31.617053 8.244794 -1.263695 21.974721 -7.440842 -19.534967 8.904778 0.000000 0.000000 0.000000 3.269602 -1.585308 22.706486 -6.041997 1.887271 -22.581497 -2.153183 8.634988 32.957769 15.248374 -5.300936 -31.652408 0.000000 0.000000 0.000000 -2.343286 -1.530037 0.234637 -59.426744 -11.842297 -4.863175 -170.246795 -75.241523 175.862045 0.000000 0.000000 0.000000 14.614147 -11.903182 -6.003770 66.341588 -3.713011 -11.066732 107.715727 74.951841 104.258993 0.000000 0.000000 0.000000 
-0.000833 0.937814 0.072696 -2.923799 -5.145272 13.825326 9.330805 -0.027520 -31.126025 -7.891077 2.602037 28.457253 9.330352 19.201932 9.206790 0.000000 0.000000 0.000000 -5.651046 2.279074 -29.929184 8.513664 -1.305082 22.217962 -7.434698 -19.456592 8.203796 0.000000 0.000000 0.000000 4.154314 -1.681649 21.123939 -6.489929 1.986248 -22.862663 -2.029467 8.333554 32.662692 14.601854 -5.137975 -31.294861 0.000000 0.000000 0.000000 -2.475878 -1.119411 0.106309 -59.735089 -13.084036 -4.153811 -173.535533 -72.437487 -179.411663 0.000000 0.000000 0.000000 15.165442 -12.710126 -6.613473 66.923794 -3.784921 -11.268606 122.265785 73.870226 119.499971 0.000000 0.000000 0.000000 
0.004640 0.932992 0.082518 -2.615074 -5.188799 11.508813 8.482513 -0.254990 -28.780466 -7.906477 2.706892 29.796379 9.636333 19.699824 8.045376 0.000000 0.000000 0.000000 -5.690984 2.064536 -27.633041 8.472044 -1.310192 23.530127 -7.531370 -19.413043 6.302620 0.000000 0.000000 0.000000 4.728542 -1.733004 20.424072 -6.723462 2.055011 -23.119020 -2.394627 7.366465 32.608393 13.925576 -4.562063 -33.301456 0.000000 0.000000 0.000000 -2.416135 -2.039792 0.531189 -59.893826 -16.741897 -2.189661 174.926330 -71.260090 -162.471068 0.000000 0.000000 0.000000 16.545184 -12.507858 -6.833724 66.893572 -1.505149 -10.223723 135.520347 74.407255 135.797002 0.000000 0.000000 0.000000 
0.011330 0.929474 0.090683 -2.515107 -5.594327 9.547007 8.182769 -0.286932 -27.366070 -8.169338 3.021112 31.810911 9.745163 19.853257 7.332704 0.000000 0.000000 0.000000 -5.969619 1.869085 -25.671366 8.336125 -1.250958 24.721761 -7.514705 -19.204009 4.913139 0.000000 0.000000 0.000000 5.056900 -1.706243 19.661241 -6.755665 2.058340 -23.833719 -2.718277 6.374888 33.134283 12.840061 -4.154236 -33.842905 0.000000 0.000000 0.000000 -2.220780 -4.785855 1.649496 -59.869141 -22.710073 1.048846 156.222240 -70.140826 -135.129148 0.000000 0.000000 0.000000 17.035841 -11.315809 -6.420619 67.213462 3.087708 -7.925750 151.493700 74.549445 156.033661 0.000000 0.000000 0.000000 
0.019348 0.934256 0.097396 -2.568088 -6.699845 8.338349 7.458432 -0.365466 -25.423532 -7.845877 3.015721 31.633941 9.999566 20.185629 7.872295 0.000000 0.000000 0.000000 -5.728704 1.776154 -23.352016 7.466599 -0.882635 23.435708 -7.076918 -18.205056 4.461366 0.000000 0.000000 0.000000 5.449935 -1.643503 18.465776 -6.460717 2.002128 -23.227173 -3.267587 6.220051 32.368482 11.377863 -3.513769 -33.733758 0.000000 0.000000 0.000000 -1.139963 -5.441557 1.915702 -60.439252 -27.699619 4.114333 144.848517 -67.742884 -117.585220 0.000000 0.000000 0.000000 16.541790 -10.963234 -6.305903 68.012916 8.207854 -4.948678 164.891215 73.122655 173.018758 0.000000 0.000000 0.000000 
0.028083 0.943240 0.103585 -2.689443 -7.862728 8.093875 6.842310 -0.428266 -22.643727 -7.364110 2.691752 28.411008 9.781903 19.717024 8.765839 0.000000 0.000000 0.000000 -5.695352 1.701203 -21.693997 6.754085 -0.603261 21.552349 -6.122682 -16.378221 5.542009 0.000000 0.000000 0.000000 5.806581 -1.540115 16.581223 -6.013404 1.868399 -23.899638 -3.430743 6.445296 32.641659 11.218222 -3.658337 -32.966351 0.000000 0.000000 0.000000 0.837162 -5.686874 1.981075 -62.965938 -31.273566 6.837194 137.792132 -64.755582 -104.739381 0.000000 0.000000 0.000000 14.999178 -10.914528 -6.131816 69.350866 12.178517 -2.555088 175.159420 70.709172 -172.940194 0.000000 0.000000 0.000000 
0.036245 0.950429 0.109135 -2.786789 -9.147962 8.398794 6.259308 -0.473627 -20.320025 -6.781978 2.368287 25.475545 9.509190 19.189469 8.956537 0.000000 0.000000 0.000000 -5.797032 1.689409 -20.981325 6.070624 -0.364602 19.968931 -5.094566 -14.375891 5.850918 0.000000 0.000000 0.000000 6.463153 -1.438089 14.028965 -5.991996 1.837839 -24.220033 -3.843306 6.755545 32.778557 10.792194 -3.632669 -32.473323 0.000000 0.000000 0.000000 1.913865 -4.928718 1.694246 -64.961052 -32.957927 8.532042 136.183370 -62.719397 -99.815885 0.000000 0.000000 0.000000 14.514650 -10.629200 -5.999222 70.283583 15.567372 -0.471461 -177.647869 66.799897 -161.882300 0.000000 0.000000 0.000000 
